<svg width="20" height="23" viewBox="0 0 20 23" fill="none" xmlns="http://www.w3.org/2000/svg">
<path d="M10.3042 4.56753L11.9825 3.60087V1.2987L10.3042 0.332031V4.56753Z" fill="#A4A7A9"/>
<path d="M4.13183 14.5999V8.11753L9.73599 4.89437V0.332031L0.451492 5.6752C0.365265 5.72471 0.293585 5.79604 0.243647 5.88202C0.193709 5.968 0.167271 6.0656 0.166992 6.16503V16.8472C0.166992 16.8584 0.168823 16.8695 0.168823 16.8787L4.13183 14.5999Z" fill="#6FC9C4"/>
<path d="M15.6285 15.0547L10.0193 18.2825L4.44483 15.0742L0.479492 17.3558L9.73566 22.6805C9.82238 22.7299 9.92039 22.7559 10.0202 22.7562C10.1195 22.7552 10.2169 22.7292 10.3035 22.6805L19.5885 17.3382L19.5922 17.3349L15.6285 15.0547Z" fill="#6D6E71"/>
<path d="M19.5887 5.67676L15.9068 3.55859V5.86109L11.9512 8.13759L15.9068 10.4114V14.5624L19.8717 16.8426V6.16659C19.8718 6.06725 19.8457 5.96963 19.796 5.88362C19.7464 5.7976 19.6748 5.72624 19.5887 5.67676Z" fill="#A4A7A9"/>
<path d="M8.05615 10.3763V14.8939L11.9062 12.6788V8.16211L8.05615 10.3763Z" fill="#6D6E71"/>
</svg>
