<svg width="30" height="31" viewBox="0 0 30 31" fill="none" xmlns="http://www.w3.org/2000/svg">
<path fill-rule="evenodd" clip-rule="evenodd" d="M24.3581 4.24182C24.442 4.15922 24.4368 4.02236 24.3458 3.94775C21.9243 1.96261 18.8684 0.703139 15.5219 0.508148C15.4359 0.503133 15.3565 0.554694 15.3255 0.63511L7.84952 19.9715C7.77185 20.1724 8.02301 20.3373 8.17643 20.1861L24.3581 4.24182ZM3.20852 24.2684C3.30294 24.3884 3.49065 24.3585 3.54617 24.2163L11.7829 3.11585C11.8614 2.91481 11.6098 2.74918 11.4562 2.90074L0.0765542 14.1266C0.0410668 14.1616 0.0198758 14.2086 0.0174889 14.2584C0.00587403 14.5006 0 14.7444 0 14.9896C0 18.4922 1.19892 21.7147 3.20852 24.2684ZM26.5195 25.4809C26.4457 25.5732 26.3083 25.5797 26.2248 25.4962L16.6415 15.9065C16.5635 15.8284 16.5635 15.7018 16.6415 15.6237L26.417 5.84176C26.5016 5.75711 26.6411 5.76513 26.714 5.86003C28.7749 8.54252 30.0002 11.9013 30.0002 15.5464C30.0002 19.3048 28.6976 22.7588 26.5195 25.4809ZM5.35729 26.9462C5.27277 27.0308 5.28078 27.1702 5.37558 27.2431C7.99437 29.2564 11.2727 30.4533 14.8304 30.4533C18.4988 30.4533 21.8701 29.1808 24.5277 27.0528C24.6198 26.9791 24.6264 26.8418 24.5429 26.7583L15.1855 17.3946C15.1074 17.3164 14.9806 17.3164 14.9025 17.3946L5.35729 26.9462Z" fill="url(#paint0_linear_3790_58332)"/>
<defs>
<linearGradient id="paint0_linear_3790_58332" x1="15" y1="5" x2="15" y2="27" gradientUnits="userSpaceOnUse">
<stop stop-color="#81897C"/>
<stop offset="1" stop-color="#606659"/>
</linearGradient>
</defs>
</svg>
